<?xml version="1.0" encoding="utf-8"?>
<!-- Generator: Adobe Illustrator 24.3.0, SVG Export Plug-In . SVG Version: 6.00 Build 0)  -->
<svg version="1.1" id="Calque_1" xmlns="http://www.w3.org/2000/svg" xmlns:xlink="http://www.w3.org/1999/xlink" x="0px" y="0px"
	 viewBox="0 0 264 49" style="enable-background:new 0 0 264 49;" xml:space="preserve">
<style type="text/css">
	.st0{fill:#FFFFFF;}
</style>
<g>
	<g id="XMLID_125_">
		<path id="XMLID_126_" class="st0" d="M62.7,25.2c1.7-2.7,3.4-5.3,4.1-8.4c0.5-2.1,0.4-4.3-0.1-6.4c-5.6,2.2-9.5,7.6-9.5,13.9
			c0,2.9,0.8,5.6,2.2,7.9C60,29.7,61.4,27.3,62.7,25.2z"/>
		<path id="XMLID_134_" class="st0" d="M67.9,25.2c1.7-2.7,3.4-5.3,4.1-8.4c0.6-2.5,0.4-5.1-0.5-7.4c-1.4,0.1-2.8,0.3-4.1,0.7
			c0.4,0.5,0.8,1.1,1.2,1.7c1.1,1.9,1.1,4.2,0.8,6.3c-0.3,1.9-1.1,3.7-2,5.3c-1.2,2.1-2.8,4-3.8,6.2c-0.3,0.6-0.6,1.3-0.8,2
			c-0.7,2.4,0.4,5,2.6,6.1c0,0,0,0,0,0c-0.9-1.4-1.2-3.2-1-4.8C64.9,30.1,66.5,27.5,67.9,25.2z"/>
		<path id="XMLID_136_" class="st0" d="M78.5,10.7c0.2,0.3,0.5,0.7,0.7,1c1.1,1.9,1.1,4.2,0.8,6.3c-0.3,1.9-1.1,3.7-2,5.3
			c-1.2,2.1-2.8,4-3.8,6.2c-1,2.2-1.5,4.6-1.5,6.9c0,0.9,0.1,1.9,0.5,2.6c0.8-0.1,1.7-0.2,2.5-0.4c-0.7-2-0.8-4.2-0.5-6.3
			c0.1-0.8,0.3-1.7,0.6-2.4c0.4-1.2,1.1-2.2,1.8-3.3c1.4-2.1,2.8-4.1,3.9-6.4c0.2-0.4,0.4-0.9,0.6-1.3c-0.9,3.1-2.2,6-4.1,8.7
			c1.3-1.9,2.7-3.7,3.8-5.7c1.1-2,1.9-4.3,1.9-6.6c0.5,0.5,0.5,1.3,0.5,2c0,1.1-0.1,2.1-0.4,3.2c-0.4,1.7-1.2,3.6-0.5,5.2
			c0.1,0.4,0.4,0.7,0.4,1.1c0.1,0.4-0.1,0.9-0.5,1c-0.2,0.1-0.4,0-0.6,0.1c-0.6,0.1-0.9,0.9-0.5,1.4c0.1,0.1,0.3,0.3,0.3,0.4
			c0,0.2-0.2,0.3-0.4,0.4c-0.2,0-0.4,0-0.6,0.1c0.2,0.1,0.2,0.4,0,0.6c-0.2,0.2-0.4,0.3-0.6,0.4c-0.4,0.4-0.4,1-0.4,1.6
			c-0.1,0.7-0.4,1.5-1.1,1.7c-0.8,0.2-1.6-0.5-2.5-0.3c-0.8,0.2-1.2,1.1-1.3,2c-0.1,0.8-0.1,1.6,0.1,2.4c6.6-1.5,11.5-7.5,11.5-14.5
			C87.1,18.3,83.6,13.1,78.5,10.7z"/>
		<path id="XMLID_137_" class="st0" d="M69.8,32.9c0.4-2.8,1.9-5.4,3.4-7.7c1.7-2.7,3.4-5.3,4.1-8.4c0.5-2.2,0.4-4.5-0.2-6.6
			c-1.5-0.5-3.2-0.8-4.9-0.8c-0.1,0-0.1,0-0.2,0c0.8,0.7,1.4,1.5,1.9,2.4c1.1,1.9,1.1,4.2,0.8,6.3c-0.3,1.9-1.1,3.7-2,5.3
			c-1.2,2.1-2.8,4-3.8,6.2c-0.5,1-0.8,2.9-1,4.7c-0.3,2.6,1.7,4.9,4.3,4.9c0,0,0,0,0,0c0.1,0,0.1,0,0.2,0
			C70.3,38,69.4,35.2,69.8,32.9z"/>
	</g>
	<g>
		<path class="st0" d="M117.9,32.7l-0.8,6h-16.1V11.8h15.8l0.8,6h-9.9V22h8v6h-8v4.7H117.9z"/>
		<path class="st0" d="M140.8,29.6c0,5.4-4.5,9.7-10.2,9.7c-5.9,0-10.2-4.6-10.2-10.8c0-6.5,4.6-13.5,14-17.5l3.5,5.3
			c-3.2,1.2-6.5,2.9-8.8,5.4c1-0.5,2.2-0.7,3.5-0.7C137.1,20.9,140.8,24.7,140.8,29.6z M134.2,29.5c0-2.1-1.6-3.7-3.7-3.7
			c-2,0-3.7,1.6-3.7,3.7c0,2,1.6,3.7,3.7,3.7C132.6,33.2,134.2,31.6,134.2,29.5z"/>
		<path class="st0" d="M145.2,11.7h6.3l-4.3,12l-5.2,0.5L145.2,11.7z"/>
		<path class="st0" d="M149.5,29.8c0-5.4,4.3-9.5,10-9.5c1.7,0,3.3,0.3,4.7,0.9l-0.9,5.5c-1.2-0.6-2.3-0.9-3.3-0.9
			c-2.5,0-4.1,1.7-4.1,3.9c0,2.2,1.6,3.9,4.2,3.9c1.1,0,2.3-0.3,3.5-1l0.8,5.5c-1.5,0.6-3,1-4.8,1C153.8,39.3,149.5,35.2,149.5,29.8
			z"/>
		<path class="st0" d="M165.6,29.8c0-5.3,4.3-9.5,10-9.5c5.7,0,10,4.2,10,9.5s-4.3,9.5-10,9.5C169.9,39.3,165.6,35.2,165.6,29.8z
			 M179.4,29.8c0-2.2-1.7-3.9-3.8-3.9c-2.2,0-3.8,1.7-3.8,3.9c0,2.2,1.7,3.9,3.8,3.9C177.7,33.7,179.4,32,179.4,29.8z"/>
		<path class="st0" d="M187.9,15c0-2,1.7-3.7,3.9-3.7s3.9,1.7,3.9,3.7s-1.7,3.7-3.9,3.7S187.9,17,187.9,15z M188.4,21.2l6.6-0.7
			v18.1h-6.6V21.2z"/>
		<path class="st0" d="M206.8,19.8v1.1h3.5v5.2h-3.5v12.6h-6.6V26.1h-2.2v-5.2h2.2v-1.3c0-5.5,3.3-8.5,9.5-8.5h0.7v5.7h-0.5
			C207.9,16.7,206.8,17.8,206.8,19.8z"/>
	</g>
</g>
</svg>
